<svg width="1200" height="760" viewBox="0 0 1200 760" xmlns="http://www.w3.org/2000/svg" role="img" aria-label="BC Government AI research height and depth model">
  <defs>
    <linearGradient id="bgSky" x1="0" y1="0" x2="0" y2="1">
      <stop offset="0%" stop-color="#103e66"/>
      <stop offset="100%" stop-color="#08233c"/>
    </linearGradient>
    <linearGradient id="bgOcean" x1="0" y1="0" x2="0" y2="1">
      <stop offset="0%" stop-color="#0f406b"/>
      <stop offset="55%" stop-color="#0b2f50"/>
      <stop offset="100%" stop-color="#071d31"/>
    </linearGradient>
    <linearGradient id="layerTop" x1="0" y1="0" x2="1" y2="0">
      <stop offset="0%" stop-color="#1b5f97"/>
      <stop offset="100%" stop-color="#3577ae"/>
    </linearGradient>
    <linearGradient id="layerMid" x1="0" y1="0" x2="1" y2="0">
      <stop offset="0%" stop-color="#164e7f"/>
      <stop offset="100%" stop-color="#2d679b"/>
    </linearGradient>
    <linearGradient id="layerDeep" x1="0" y1="0" x2="1" y2="0">
      <stop offset="0%" stop-color="#123e66"/>
      <stop offset="100%" stop-color="#2a5680"/>
    </linearGradient>
    <linearGradient id="layerCompute" x1="0" y1="0" x2="1" y2="0">
      <stop offset="0%" stop-color="#102f4d"/>
      <stop offset="100%" stop-color="#26496b"/>
    </linearGradient>
    <linearGradient id="layerBedrock" x1="0" y1="0" x2="1" y2="0">
      <stop offset="0%" stop-color="#0d2136"/>
      <stop offset="100%" stop-color="#1c3753"/>
    </linearGradient>
  </defs>

  <rect x="0" y="0" width="1200" height="760" fill="url(#bgSky)"/>
  <rect x="0" y="150" width="1200" height="610" fill="url(#bgOcean)"/>

  <path d="M0,162 C80,140 160,184 240,162 C320,140 400,184 480,162 C560,140 640,184 720,162 C800,140 880,184 960,162 C1040,140 1120,184 1200,162 L1200,190 L0,190 Z" fill="#1c6aa6" opacity="0.42"/>
  <path d="M0,176 C90,158 180,196 270,176 C360,158 450,196 540,176 C630,158 720,196 810,176 C900,158 990,196 1080,176 C1140,162 1170,170 1200,176 L1200,200 L0,200 Z" fill="#2f81be" opacity="0.35"/>

  <text x="600" y="42" text-anchor="middle" font-family="BC Sans, Noto Sans, Segoe UI, Arial" font-size="26" fill="#fcba19" font-weight="700">BC GOV AI RESEARCH: HEIGHT AND DEPTH</text>
  <text x="600" y="68" text-anchor="middle" font-family="BC Sans, Noto Sans, Segoe UI, Arial" font-size="14" fill="#c4d8ec">Visible outcomes above water, technical grounding below water</text>

  <rect x="110" y="86" width="980" height="54" rx="10" fill="#ffffff" opacity="0.08"/>
  <text x="160" y="108" font-family="BC Sans, Noto Sans, Segoe UI, Arial" font-size="13" fill="#d8e8f8" font-weight="700">Height (visible impact):</text>
  <text x="345" y="108" font-family="BC Sans, Noto Sans, Segoe UI, Arial" font-size="13" fill="#d8e8f8">service copilots</text>
  <text x="515" y="108" font-family="BC Sans, Noto Sans, Segoe UI, Arial" font-size="13" fill="#d8e8f8">agentic workflows</text>
  <text x="710" y="108" font-family="BC Sans, Noto Sans, Segoe UI, Arial" font-size="13" fill="#d8e8f8">content automation</text>
  <text x="905" y="108" font-family="BC Sans, Noto Sans, Segoe UI, Arial" font-size="13" fill="#d8e8f8">faster delivery</text>
  <text x="160" y="128" font-family="BC Sans, Noto Sans, Segoe UI, Arial" font-size="12" fill="#b8cde3">Depth keeps these outcomes reliable, safe, and cost-aware.</text>

  <line x1="85" y1="210" x2="85" y2="690" stroke="#7fa7ca" stroke-width="1.2" stroke-dasharray="5 5"/>
  <text x="58" y="450" transform="rotate(-90,58,450)" text-anchor="middle" font-family="BC Sans, Noto Sans, Segoe UI, Arial" font-size="12" fill="#9ec2e2" letter-spacing="1">DEPTH AND GROUNDING INCREASES</text>

  <rect x="115" y="210" width="970" height="78" rx="12" fill="url(#layerTop)" stroke="#5a92c3" stroke-width="1"/>
  <text x="145" y="239" font-family="BC Sans, Noto Sans, Segoe UI, Arial" font-size="19" fill="#ffffff" font-weight="700">1. Applications and Agentic Systems</text>
  <text x="145" y="264" font-family="BC Sans, Noto Sans, Segoe UI, Arial" font-size="13" fill="#d5e6f6">Service workflow orchestration, tool use reliability, deployment patterns.</text>
  <text x="145" y="282" font-family="BC Sans, Noto Sans, Segoe UI, Arial" font-size="11.5" fill="#a8c7e3" font-style="italic">Fast-moving layer: visible outcomes, frequent iteration.</text>

  <rect x="115" y="302" width="970" height="84" rx="12" fill="url(#layerMid)" stroke="#4d85b5" stroke-width="1"/>
  <text x="145" y="332" font-family="BC Sans, Noto Sans, Segoe UI, Arial" font-size="19" fill="#ffffff" font-weight="700">2. Safe AI and Red Teaming</text>
  <text x="145" y="357" font-family="BC Sans, Noto Sans, Segoe UI, Arial" font-size="13" fill="#d3e5f6">Threat modeling, prompt attack testing, eval benchmarks, governance checks.</text>
  <text x="145" y="376" font-family="BC Sans, Noto Sans, Segoe UI, Arial" font-size="11.5" fill="#a8c7e3" font-style="italic">Control layer: prevents fragile systems from scaling unsafely.</text>

  <rect x="115" y="402" width="970" height="88" rx="12" fill="url(#layerDeep)" stroke="#3f749f" stroke-width="1"/>
  <text x="145" y="432" font-family="BC Sans, Noto Sans, Segoe UI, Arial" font-size="19" fill="#ffffff" font-weight="700">3. Learning AI Internals</text>
  <text x="145" y="457" font-family="BC Sans, Noto Sans, Segoe UI, Arial" font-size="13" fill="#d0e2f3">Attention behavior, token flow, inference characteristics, memory constraints.</text>
  <text x="145" y="476" font-family="BC Sans, Noto Sans, Segoe UI, Arial" font-size="11.5" fill="#a8c7e3" font-style="italic">Understanding layer: explains why systems succeed or fail.</text>

  <rect x="115" y="508" width="970" height="82" rx="12" fill="url(#layerCompute)" stroke="#356488" stroke-width="1"/>
  <text x="145" y="536" font-family="BC Sans, Noto Sans, Segoe UI, Arial" font-size="19" fill="#ffffff" font-weight="700">4. Compute and Systems</text>
  <text x="145" y="560" font-family="BC Sans, Noto Sans, Segoe UI, Arial" font-size="13" fill="#c9dcee">CPU/GPU fit, runtime optimization, throughput, latency, and cost profiling.</text>
  <text x="145" y="579" font-family="BC Sans, Noto Sans, Segoe UI, Arial" font-size="11.5" fill="#9fbfda" font-style="italic">Stability layer: durable technical constraints that shape all design choices.</text>

  <rect x="115" y="604" width="970" height="88" rx="12" fill="url(#layerBedrock)" stroke="#2c5370" stroke-width="1"/>
  <rect x="115" y="604" width="970" height="88" rx="12" fill="#fcba19" opacity="0.08"/>
  <text x="145" y="634" font-family="BC Sans, Noto Sans, Segoe UI, Arial" font-size="19" fill="#fcdf90" font-weight="700">5. Enabling AI Across BC Gov</text>
  <text x="145" y="658" font-family="BC Sans, Noto Sans, Segoe UI, Arial" font-size="13" fill="#d5e4f4">Reusable playbooks, implementation standards, and adoption guidance for diverse applications.</text>
  <text x="145" y="677" font-family="BC Sans, Noto Sans, Segoe UI, Arial" font-size="11.5" fill="#b5cce3" font-style="italic">Bedrock: grounded research translated into policy and delivery practice.</text>

  <rect x="1022" y="232" width="50" height="22" rx="5" fill="#fcba19" opacity="0.2"/>
  <text x="1047" y="247" text-anchor="middle" font-family="BC Sans, Noto Sans, Segoe UI, Arial" font-size="10.5" fill="#fcdf90" font-weight="700">HEIGHT</text>

  <line x1="1047" y1="262" x2="1047" y2="656" stroke="#fcba19" stroke-width="1.2" stroke-dasharray="4 5" opacity="0.6"/>

  <rect x="1012" y="664" width="70" height="22" rx="5" fill="#fcba19" opacity="0.2"/>
  <text x="1047" y="679" text-anchor="middle" font-family="BC Sans, Noto Sans, Segoe UI, Arial" font-size="10.5" fill="#fcdf90" font-weight="700">DEPTH</text>

  <text x="600" y="726" text-anchor="middle" font-family="BC Sans, Noto Sans, Segoe UI, Arial" font-size="13" fill="#9cc1e0">
    Build high, but stay grounded: every public-sector AI outcome should rest on measurable technical depth.
  </text>
</svg>
